<svg xmlns="http://www.w3.org/2000/svg" width="106.432" height="109.794" viewBox="0 0 106.432 109.794">
  <g id="kemiLogoTeal" transform="translate(-16 -0.836)">
    <path id="Path_4" data-name="Path 4" d="M201.6,53.286h-5.322V51.512a1.774,1.774,0,0,0-1.774-1.774H177.355l-6.622-4.967a1.774,1.774,0,0,0-1.064-.355h-3.206l.317-.127a1.774,1.774,0,0,0,1.115-1.647A10.646,10.646,0,0,0,157.251,32H144.834v3.548h12.417a7.1,7.1,0,0,1,7,5.932l-7.343,2.937H145.056a5.546,5.546,0,0,0-4.856,2.872l-7.783-5.559V35.548h8.869V32H123.548a1.774,1.774,0,0,0-1.774,1.774v8.869a1.774,1.774,0,0,0,1.774,1.774h1.774a5.322,5.322,0,0,0,0,10.643h3.548v7.1a1.774,1.774,0,0,0,1.774,1.774h.305A5.309,5.309,0,0,0,132,69.251a5.309,5.309,0,0,0,0,7.1,5.312,5.312,0,0,0,.844,7.856,70.837,70.837,0,0,0-2.769,7.6l3.4,1.02a67.259,67.259,0,0,1,2.8-7.605h8.562a5.318,5.318,0,0,0,3.962-8.869,5.309,5.309,0,0,0,0-7.1,5.309,5.309,0,0,0,0-7.1h7.07l1.38,5.519a70.6,70.6,0,0,0,5.345,14.447,67.04,67.04,0,0,1,7.077,29.981v15.685a3.552,3.552,0,0,1-3.548,3.548h-31.93a3.552,3.552,0,0,1-3.548-3.548V112.1a67.125,67.125,0,0,1,1.5-14.086l-3.466-.757A70.724,70.724,0,0,0,127.1,112.1v15.685a7.1,7.1,0,0,0,7.1,7.1h31.93a7.1,7.1,0,0,0,7.1-7.1V112.1a70.589,70.589,0,0,0-7.451-31.568,67.041,67.041,0,0,1-5.077-13.721l-.87-3.479a14.852,14.852,0,0,0,8.076,2.368V62.156a11.272,11.272,0,0,1-10.516-7.12l-.254-.634a1.774,1.774,0,0,0-1.427-1.1l-10.89-1.361a2,2,0,0,1,.248-3.974h24.021l6.622,4.967a1.774,1.774,0,0,0,1.064.355h15.965V78.12h-3.548V58.608h-3.548V78.12H169.668v3.548H194.5a1.774,1.774,0,0,0,1.774-1.774V78.12H201.6a1.774,1.774,0,0,0,1.774-1.774V55.06A1.774,1.774,0,0,0,201.6,53.286Zm-62.755-.967a5.279,5.279,0,0,0,.508-1.277l.326.233a5.555,5.555,0,0,0,1.61,2.742v6.146l-.055.218h-3.285ZM125.322,35.548h3.548v5.322h-3.548Zm-1.774,14.191a1.776,1.776,0,0,1,1.774-1.774h8.869a1.774,1.774,0,1,1,0,3.548h-8.869A1.776,1.776,0,0,1,123.548,49.739ZM134.975,55l-.6,5.38h-1.96V55.06S134.719,55.04,134.975,55Zm9.859,8.927a1.774,1.774,0,1,1,0,3.548h-8.869a1.774,1.774,0,1,1,0-3.548Zm1.774,8.869a1.776,1.776,0,0,1-1.774,1.774h-8.869a1.774,1.774,0,1,1,0-3.548h8.869A1.776,1.776,0,0,1,146.608,72.8Zm-1.774,8.869h-8.869a1.774,1.774,0,1,1,0-3.548h8.869a1.774,1.774,0,1,1,0,3.548Zm10.379-23.06H144.834V55.517l9.39,1.174a15.039,15.039,0,0,0,.989,1.917Zm44.611,15.965h-3.548V56.834h3.548Z" transform="translate(-80.94 -24.254)" fill="teal"/>
    <path id="Path_5" data-name="Path 5" d="M72,72h7.1v3.548H72Z" transform="translate(-43.583 -55.384)" fill="teal"/>
    <path id="Path_6" data-name="Path 6" d="M16,72h7.1v3.548H16Z" transform="translate(0 -55.384)" fill="teal"/>
    <path id="Path_7" data-name="Path 7" d="M0,0H3.548V7.1H0Z" transform="translate(28.664 9.55) rotate(-63.512)" fill="teal"/>
    <path id="Path_8" data-name="Path 8" d="M0,0H3.548V7.1H0Z" transform="translate(17.554 4.011) rotate(-63.512)" fill="teal"/>
    <path id="Path_9" data-name="Path 9" d="M0,0H7.1V3.548H0Z" transform="translate(28.663 27.072) rotate(-26.488)" fill="teal"/>
    <path id="Path_10" data-name="Path 10" d="M0,0H7.1V3.548H0Z" transform="translate(17.548 32.611) rotate(-26.488)" fill="teal"/>
    <path id="Path_11" data-name="Path 11" d="M207.965,341.286a12.431,12.431,0,0,0,12.417-12.417v-7.1A1.774,1.774,0,0,0,218.608,320H204.417A12.431,12.431,0,0,0,192,332.417v7.1a1.774,1.774,0,0,0,1.774,1.774Zm-12.417-8.869a8.879,8.879,0,0,1,8.869-8.869h12.417v5.322a8.879,8.879,0,0,1-8.869,8.869H195.548Z" transform="translate(-136.975 -248.395)" fill="teal"/>
  </g>
</svg>
