<svg xmlns="http://www.w3.org/2000/svg" width="480" height="495.164" viewBox="0 0 480 495.164">
  <g id="kemiLogoBlue" transform="translate(-16 -0.836)">
    <path id="Path_4" data-name="Path 4" d="M488,128H464v-8a8,8,0,0,0-8-8H378.667L348.8,89.6A8,8,0,0,0,344,88H329.541l1.43-.572A8,8,0,0,0,336,80a48.014,48.014,0,0,0-48-48H232V48h56a32.036,32.036,0,0,1,31.574,26.754L286.459,88H233a25.013,25.013,0,0,0-21.9,12.954L176,75.883V48h40V32H136a8,8,0,0,0-8,8V80a8,8,0,0,0,8,8h8a24,24,0,1,0,0,48h16v32a8,8,0,0,0,8,8h1.376a23.943,23.943,0,0,0,4.755,24,23.943,23.943,0,0,0,0,32,23.956,23.956,0,0,0,3.807,35.431A319.467,319.467,0,0,0,165.451,301.7l15.324,4.6A303.328,303.328,0,0,1,193.387,272H232a23.984,23.984,0,0,0,17.869-40,23.943,23.943,0,0,0,0-32,23.943,23.943,0,0,0,0-32h31.885l6.225,24.89a318.389,318.389,0,0,0,24.1,65.156A303.152,303.152,0,0,1,335.915,323.8,302.5,302.5,0,0,1,344,393.26V464a16.019,16.019,0,0,1-16,16H184a16.019,16.019,0,0,1-16-16V393.26a302.733,302.733,0,0,1,6.749-63.526l-15.632-3.416A318.965,318.965,0,0,0,152,393.26V464a32.036,32.036,0,0,0,32,32H328a32.036,32.036,0,0,0,32-32V393.26a318.5,318.5,0,0,0-8.51-73.124A319.186,319.186,0,0,0,326.4,250.891,302.353,302.353,0,0,1,303.5,189.009l-3.923-15.689A66.982,66.982,0,0,0,336,184V168a50.837,50.837,0,0,1-47.428-32.111l-1.144-2.861a8,8,0,0,0-6.436-4.966l-49.112-6.14A9,9,0,0,1,233,104H341.333L371.2,126.4A8,8,0,0,0,376,128h72V240H432V152H416v88H344v16H456a8,8,0,0,0,8-8v-8h24a8,8,0,0,0,8-8V136a8,8,0,0,0-8-8Zm-283.02-4.362a23.813,23.813,0,0,0,2.289-5.759l1.471,1.051A25.052,25.052,0,0,0,216,131.3v27.72l-.246.985H200.938ZM144,48h16V72H144Zm-8,64a8.009,8.009,0,0,1,8-8h40a8,8,0,0,1,0,16H144a8.009,8.009,0,0,1-8-8Zm51.536,23.738L184.84,160H176V136S186.382,135.909,187.536,135.738ZM232,176a8,8,0,0,1,0,16H192a8,8,0,1,1,0-16Zm8,40a8.009,8.009,0,0,1-8,8H192a8,8,0,1,1,0-16h40a8.009,8.009,0,0,1,8,8Zm-8,40H192a8,8,0,1,1,0-16h40a8,8,0,0,1,0,16Zm46.807-104H232V138.062l42.348,5.293A67.82,67.82,0,0,0,278.807,152ZM480,224H464V144h16Z" fill="#0083ca"/>
    <path id="Path_5" data-name="Path 5" d="M72,72h32V88H72Z" fill="#0083ca"/>
    <path id="Path_6" data-name="Path 6" d="M16,72H48V88H16Z" fill="#0083ca"/>
    <path id="Path_7" data-name="Path 7" d="M83.022,24.134h16v32h-16Z" transform="translate(14.484 103.676) rotate(-63.512)" fill="#0083ca"/>
    <path id="Path_8" data-name="Path 8" d="M32.908-.859h16v32h-16Z" transform="translate(9.102 44.992) rotate(-63.512)" fill="#0083ca"/>
    <path id="Path_9" data-name="Path 9" d="M75.022,111.141h32v16h-32Z" transform="translate(-43.604 53.145) rotate(-26.488)" fill="#0083ca"/>
    <path id="Path_10" data-name="Path 10" d="M24.908,136.133h32v16h-32Z" transform="translate(-60.025 33.407) rotate(-26.488)" fill="#0083ca"/>
    <path id="Path_11" data-name="Path 11" d="M264,416a56.064,56.064,0,0,0,56-56V328a8,8,0,0,0-8-8H248a56.064,56.064,0,0,0-56,56v32a8,8,0,0,0,8,8Zm-56-40a40.045,40.045,0,0,1,40-40h56v24a40.045,40.045,0,0,1-40,40H208Z" fill="#0083ca"/>
  </g>
</svg>
