<svg xmlns="http://www.w3.org/2000/svg" width="197.766" height="105.493" viewBox="0 0 197.766 105.493">
  <path id="kneelitLogoGreen" d="M117.011,105.493a10.56,10.56,0,0,1-1.248-.077,14.694,14.694,0,0,1-4.84-2.315,10.553,10.553,0,0,1-1.664-2.711,21.719,21.719,0,0,1-1.073-3.814l-66.929-16-5.052-4.209L29.048,74.9l-6.524,1.894-6.736-1.683-5.892-4-4.63-.42c-.028,0-2.784-.177-4.086-1.427A5.283,5.283,0,0,1,0,65.637c0-.206.242-20.651.211-23.573a3.3,3.3,0,0,1,.742-2.425,1.691,1.691,0,0,1,1.1-.515L9.025,37.5l5.854-3.985,6.62-1.743,7.454,1.494,6.6-1.743,5.107-4.234L108.507,7.954a10.833,10.833,0,0,1,1.163-3.523,7.585,7.585,0,0,1,2.37-2.319A20.077,20.077,0,0,1,116.345.137,4.741,4.741,0,0,1,117.45,0,3.045,3.045,0,0,1,119.1.411a20.435,20.435,0,0,1,3.113,3.1,57.874,57.874,0,0,1,3.472,4.919l1.09,1.177,3.532-.654,8.5-6.584a8.68,8.68,0,0,1,3.43-1.481,16.35,16.35,0,0,1,3.075-.244c1.071,0,1.9.067,1.91.068L157,3.072l8.722,4.01L169.51,8.87l.524-1.134a7.228,7.228,0,0,1,2.4-1.09,5.614,5.614,0,0,1,1.131-.106,8.015,8.015,0,0,1,1.528.15,18.909,18.909,0,0,1,1.919.436,7.879,7.879,0,0,1,1.4.567l.916,1.395,2.048,1.963a4.74,4.74,0,0,1,1.033,1.576,5.019,5.019,0,0,1,.189,1.912l-1.353,2.921-1.09.7.567,1.482L189,24.219l.262,7.718,6.672,5.015-.044,4.883,1.7,2.093L197.766,55l-1.7,5.145.043,5.581-6.715,4.884.044,7.674-7.936,4.4-.959,1.525,1.658,1.57a7.885,7.885,0,0,1,.729,3.758,7.731,7.731,0,0,1-1.6,3.019l-2.214,2.327a11.718,11.718,0,0,1-4.642,1.364c-.077,0-.155,0-.23-.005a7.055,7.055,0,0,1-3.968-1.779l-.008.005a163.654,163.654,0,0,1-15.467,7.159,26.638,26.638,0,0,1-9.286,1.853,12.807,12.807,0,0,1-4.284-.6l-10.314-8L127.55,93.84l-4.841,8.629a4.8,4.8,0,0,1-1.21,1.512A6.68,6.68,0,0,1,117.011,105.493ZM154.863,26.6a1.308,1.308,0,0,1,.937.388,3.607,3.607,0,0,1,.594,1.348l-.329,57.213-3.67,3.094v7.344a1.478,1.478,0,0,0,.9.829,3.523,3.523,0,0,0,1.043.124,7.715,7.715,0,0,0,.844-.048l12.822-5.431a4.074,4.074,0,0,0,.887-.68,2.386,2.386,0,0,0,.471-.829c0-.051.026-5.14-.066-5.5s-1.8-1.131-1.82-1.138a2.608,2.608,0,0,1-1.212-.895,4.229,4.229,0,0,1-.523-1.671V27.811a2.235,2.235,0,0,1,.633-1.057,5.536,5.536,0,0,1,1.4-.829l1.584-.9-.075-6.036a1.346,1.346,0,0,0-.9-.9,6.5,6.5,0,0,0-1.911-.232c-.171,0-.282,0-.283,0H153a2.477,2.477,0,0,0-.351-.023,1.88,1.88,0,0,0-1,.251,2.687,2.687,0,0,0-.829,1.206v5.355a7.493,7.493,0,0,0,.875,1.281,2.842,2.842,0,0,0,.933.679h2.24ZM134.23,84.133a4.9,4.9,0,0,1,1.686.25,2.684,2.684,0,0,1,1.352,1.31l1.678,3.636.257,4.233a3.63,3.63,0,0,0-.1,1.754,1.018,1.018,0,0,0,.968.493c.051,0,.084,0,.088,0l2.66-.49a5.259,5.259,0,0,0,1.858-.861,4.329,4.329,0,0,0,1.107-1.563l.157-6.528-.57-2.324-1.677-3.9L143.563,78a8.513,8.513,0,0,0-.325-2.484,2.417,2.417,0,0,0-1.1-1.283l-.9.051-2.14.052-3.184,1.628c-.063-.016-7.686-1.976-9.49-2.416a11.4,11.4,0,0,0-2.637-.368c-.149,0-.229.006-.23.006L120.4,74.341c.028-.295,3.274-34.451,3.737-41a118.428,118.428,0,0,0-.287-15.328,4.371,4.371,0,0,0-1.348-2.564,7.568,7.568,0,0,0-3.251-1.174h-5.653a7.335,7.335,0,0,0-2.965,1.623,6.074,6.074,0,0,0-1.344,2.881l-.238,63.6A5.963,5.963,0,0,0,110,85.425a3.982,3.982,0,0,0,2.583,1.075l20.864-2.331S133.781,84.133,134.23,84.133ZM102.248,14.665a5.239,5.239,0,0,0-1.576.289L88.827,17.924c-.031.006-3.14.626-4.359,1.577A3.921,3.921,0,0,0,83.3,22.388L81.281,83.915a2.976,2.976,0,0,0,.507,1.666,4.039,4.039,0,0,0,1.674,1.138l13.9,3.732a30.472,30.472,0,0,0,5.61,1.243,1.681,1.681,0,0,0,.418-.042,2.115,2.115,0,0,0,1.439-1.409V86.87a10.956,10.956,0,0,0-.632-2.955c-.464-.929-3.128-1.118-3.154-1.12l-6.875-1.677a7.8,7.8,0,0,1-3.054-1.544c-.844-.953-.559-4.314-.556-4.348l.14-10.373c0-.047-.173-4.712.383-5.557s2.211-.916,2.227-.917l8.085.859a4,4,0,0,0,2.143-.859,3.719,3.719,0,0,0,.812-2.1V52.476a3.667,3.667,0,0,0-.812-1.992,3.159,3.159,0,0,0-2.2-.679c-.161,0-.271.007-.291.009h-5.27a15.161,15.161,0,0,1-3-.769c-1.017-.8-.522-6.8-.517-6.865V32.06c0-.026-.333-2.636.328-3.8a3.877,3.877,0,0,1,2.383-1.51L101.641,25a3.2,3.2,0,0,0,1.891-.9,2.789,2.789,0,0,0,.544-1.718l.184-3.256c0-.031.115-3.136-.727-4.025A1.7,1.7,0,0,0,102.248,14.665ZM77.44,21.509a3.628,3.628,0,0,0-.925.126l-9.729,2.947a9.736,9.736,0,0,0-2.925,1.267,3.061,3.061,0,0,0-1.128,1.9L60.449,78.377a2.836,2.836,0,0,0,.336,1.655,2.571,2.571,0,0,0,1.434.777l11.569,2.947a12.248,12.248,0,0,0,1.572.114,4.526,4.526,0,0,0,1.126-.114,1.548,1.548,0,0,0,1.136-1.032l.514-4.347a5.345,5.345,0,0,0-.26-2.214,1.8,1.8,0,0,0-1.285-.881l-5.6-.886a3.586,3.586,0,0,1-2.186-.854,3.829,3.829,0,0,1-.616-2.314l.443-11.79a4.436,4.436,0,0,1,.413-2.072,1.928,1.928,0,0,1,1.429-.728l6.412.145a3.294,3.294,0,0,0,1.762-.706,3.059,3.059,0,0,0,.668-1.723V48.974a4.071,4.071,0,0,0-.668-2.107,2.157,2.157,0,0,0-1.563-.555c-.123,0-.2.008-.2.008l-3.852.23a10.66,10.66,0,0,1-2.58-.5,2.925,2.925,0,0,1-.864-2.02V35.709a5.854,5.854,0,0,1,.427-2.676A2.946,2.946,0,0,1,71.8,31.8l5.527-1.546a4.888,4.888,0,0,0,1.541-1.091,2.309,2.309,0,0,0,.448-1.416V24.582c0-.019.047-1.915-.645-2.643A1.626,1.626,0,0,0,77.44,21.509Zm95.378-1.475h0l-1.584,1.133V26.9l5.582,8.6,1.132,41.935a2.539,2.539,0,0,0,.707,1.488,2.167,2.167,0,0,0,1.281.338,3.123,3.123,0,0,0,.35-.018l4.753-3.168-.833-28.207c0-.017-.207-1.7,1.031-2a2.146,2.146,0,0,1,.492-.057,2.731,2.731,0,0,1,1.722.7l2.187,2.791a4.2,4.2,0,0,0,1.759.79,1.061,1.061,0,0,0,.115.006c.767,0,1.322-.859,1.492-1.4a20.057,20.057,0,0,0,.1-2.9,4.134,4.134,0,0,0-.167-1.242,3.715,3.715,0,0,0-.588-1.061L174.326,20.034h-1.508ZM44.547,60.912c1.688,0,1.979,1.171,1.982,1.183l5.675,10.1c.014.019,1.455,1.883,2.534,1.883A.819.819,0,0,0,55,74.031c1.089-.36,1.471-1.826,1.475-1.84L58.91,29.745a3.642,3.642,0,0,0-.662-1.989,2.008,2.008,0,0,0-1.412-.464,2.783,2.783,0,0,0-.359.021l-2.651.589a5.01,5.01,0,0,0-2.213,1.253,3.723,3.723,0,0,0-.662,2.211l-.81,13.043c0,.027.123,2.732-1.915,3.1a2.893,2.893,0,0,1-.5.045,3.543,3.543,0,0,1-2.737-1.667l-5.675-7.076a2.7,2.7,0,0,0-2.253-1.419,2.639,2.639,0,0,0-.327.021c-1.746.216-1.841,2.846-1.841,2.873L33.338,67.917A4.582,4.582,0,0,0,34,70.79a6.805,6.805,0,0,0,2.8,1.844l2.506.884a4.307,4.307,0,0,0,2.064-.884,2.739,2.739,0,0,0,.588-1.844v-8.4a2.746,2.746,0,0,1,2.433-1.475C44.445,60.913,44.5,60.912,44.547,60.912Zm-27.5,2.218a1.166,1.166,0,0,1,.657.269l.057.039a30.617,30.617,0,0,1,1.957,2.592,31.978,31.978,0,0,0,3.059,3.947,1.279,1.279,0,0,0,.4.039c1.395,0,5.7-.6,5.747-.6a1.884,1.884,0,0,0,1.045-.566c.3-.434-.257-1.386-.263-1.4-.074-.114-7.456-11.471-7.63-11.686a3.231,3.231,0,0,1,0-1.919c.059-.083,8.665-12.815,8.985-13.343a4.4,4.4,0,0,0,.4-2.189.186.186,0,0,0-.1-.124c-.341-.129-6.564-.259-6.627-.26l-6.8,8.241a2.924,2.924,0,0,1-.854.139,1.28,1.28,0,0,1-1.151-.534,3.3,3.3,0,0,1-.314-1.653,3.322,3.322,0,0,0-.471-2.008.578.578,0,0,0-.468-.164c-1.567,0-5.987,2.752-6.031,2.78l-.26,18.707L14.7,65.312l0-.006a7.516,7.516,0,0,1,1.568-1.869A1.388,1.388,0,0,1,17.042,63.129ZM130.995,43.692a3.844,3.844,0,0,0-1.753.366,3.213,3.213,0,0,0-1.206,1.472V57.445a2.832,2.832,0,0,0,1.206,1.475,2.192,2.192,0,0,0,.895.163,4.613,4.613,0,0,0,1.158-.163l7.229-4.375h2.545l6.249,4.017h2.454a4.213,4.213,0,0,0,1.516-.759,4.3,4.3,0,0,0,.981-1.384l.179-10.041a5.769,5.769,0,0,0-.893-1.741,3.489,3.489,0,0,0-1.384-.936h-2.454l-6.648,3.927H138.7l-7.41-3.927S131.18,43.692,130.995,43.692Zm3.479-26.379c.095,0,.933.01,1.224.341.306.347,0,1.058,0,1.065L131.3,33.272a4.754,4.754,0,0,0,.068,2.128,2.006,2.006,0,0,0,1.238,1.031h14.656a2.337,2.337,0,0,0,1.442-.618,2.106,2.106,0,0,0,.1-1.51l-1.2-4.359c0-.012-.2-1.191-.859-1.581a1.511,1.511,0,0,0-.77-.175,3.7,3.7,0,0,0-1.05.175l-3.262.79a2.915,2.915,0,0,1-1.646-.445,1.14,1.14,0,0,1-.173-1.133l1.167-10.882a3.227,3.227,0,0,0-.205-1.786,1.037,1.037,0,0,0-.844-.33,2.254,2.254,0,0,0-.5.056c-.06.025-6.076,2.539-6.556,2.748-.051.022-.076.039-.074.052s.053.024.147.024c.386,0,1.427-.138,1.471-.144ZM154.168,6.594a1.449,1.449,0,0,0-.491.071c-.67.246-.584,1.224-.583,1.234v5.837a2.049,2.049,0,0,0,.788,1.305,4.668,4.668,0,0,0,1.922.515h9.681a2.524,2.524,0,0,0,1.064-.515,1.7,1.7,0,0,0,.413-.96,3.192,3.192,0,0,0-.585-1.409,2.924,2.924,0,0,0-1.27-.755L155.8,6.9A6.279,6.279,0,0,0,154.168,6.594Z" fill="#9ec698"/>
</svg>
