<svg xmlns="http://www.w3.org/2000/svg" width="99.982" height="105.982" viewBox="0 0 99.982 105.982"><g transform="translate(-7701.236 -7786.602)"><path d="M7735.305,7850.039s-3.574-14.888,12.84-23.8c17.979-6.88,29.477,4.648,31.929,14.984,1.474,11.179-4.649,20.6-15.76,24.543-11.789,3.037-24.571-4.139-29.009-8.85-10.2-10.124-10.05-17.256-10.05-17.256a35.929,35.929,0,0,1-.862-12.067,33.607,33.607,0,0,1,4.771-13.31,36.048,36.048,0,0,1,9.521-10.45,48.351,48.351,0,0,1,11.8-6.129s11.611-3.227,22.024-.209c4.02,1.164,8.013,2.485,11.233,4.6a38.564,38.564,0,0,1,8.394,7.673,50.038,50.038,0,0,0-17.887-17.292c-10.572-5.441-21.346-7.6-35.569-4.361-8.853,2.668-21.009,9.244-28.873,21.458-1.91,2.7-15.79,25.358-3.65,53.657,6.625,10.942,11.725,20.156,31.271,27.427a47.889,47.889,0,0,0,43.877-9.043c9.31-7.374,19.75-21.522,19.876-36.769.666-14.785-14.53-37.876-39.864-36.654-8.891.047-17.5,4.765-24.007,15.227C7729.964,7836.806,7735.305,7850.039,7735.305,7850.039Z" transform="translate(0 0)" fill="#0083ca"/><path d="M7703.23,8061.4s-2.837,20.258,6.85,35.878c7.7,10.327,8.571,11.478,16.692,17.136,1.794,1.139,4.068,2.1,6.727,3.773,14.879,5.1,22.125,4.611,34.81,1.848,17.355-6.282,22.946-13.27,22.946-13.27a44.892,44.892,0,0,1-18.728,17.3c-13.13,5.594-16.812,5.537-32.673,3.955-13.083-4.142-25.46-11.152-33.759-28.592-.893-1.878-1.681-4.077-2.482-6.22C7698.551,8074.332,7703.23,8061.4,7703.23,8061.4Z" transform="translate(-0.02 -236.584)" fill="#0070b1"/><path d="M7861.357,7987.707s4.716,17.368,29.4,22.242c18.7,1.3,27.289-6.52,32.522-11.31,5.456-4.991,11.478-16.952,6.564-33.507-6.042-14.312-21.6-19.7-21.6-19.7s18.656,2.173,27.775,19.7c7.931,14.6,2.916,28.728-2.039,37.334-3.3,4.786-5.043,9.564-18.7,14.607-10.421,4.074-23.039,3.13-31.723-.514C7862.6,8006.554,7861.357,7987.707,7861.357,7987.707Z" transform="translate(-138.947 -136.841)" fill="#6baddf"/></g></svg>