<svg xmlns="http://www.w3.org/2000/svg" width="100" height="82.979" viewBox="0 0 100 82.979">
  <g id="toolsLogoBlue" transform="translate(-10655.697 -5129.321)">
    <path id="Icon_awesome-hammer" data-name="Icon awesome-hammer" d="M36.064,12.243l-1.429-1.429a1.01,1.01,0,0,0-1.429,0l-.714.714L30.668,9.7a4.023,4.023,0,0,0-1.032-3.889L26.78,2.958a10.1,10.1,0,0,0-14.284,0l5.713,2.856V7a4.038,4.038,0,0,0,1.184,2.856l3.1,3.1a4.023,4.023,0,0,0,3.889,1.032l1.824,1.824-.714.714a1.01,1.01,0,0,0,0,1.429l1.429,1.429a1.01,1.01,0,0,0,1.429,0l5.713-5.714a1.01,1.01,0,0,0,0-1.428Zm-18.1-.96a6.126,6.126,0,0,1-.622-.754L1.24,25.563a3.9,3.9,0,1,0,5.517,5.517l15.032-16.1a6.137,6.137,0,0,1-.722-.594l-3.1-3.1Z" transform="translate(10708.049 5147.501) rotate(-30)" fill="#0083ca"/>
    <path id="Icon_awesome-wrench" data-name="Icon awesome-wrench" d="M34.43,7.4a.813.813,0,0,0-1.364-.374l-5.042,5.042-4.6-.767-.767-4.6L27.7,1.654A.815.815,0,0,0,27.312.287,9.718,9.718,0,0,0,15.741,12.841L1.271,27.312a4.339,4.339,0,1,0,6.137,6.137L21.866,18.99A9.733,9.733,0,0,0,34.43,7.4ZM4.34,32.007a1.627,1.627,0,1,1,1.627-1.627A1.628,1.628,0,0,1,4.34,32.007Z" transform="translate(10655.697 5177.281) rotate(-85)" fill="#0083ca"/>
    <path id="Icon_awesome-screwdriver" data-name="Icon awesome-screwdriver" d="M27.98,0,19.985,6V9.872L14.8,15.057a6.149,6.149,0,0,1,2.12,2.12l5.186-5.186h3.876l6-7.994ZM7.994,17.4.682,24.712A2.328,2.328,0,0,0,.682,28L3.973,31.3a2.327,2.327,0,0,0,3.292,0l7.312-7.312A4.655,4.655,0,1,0,7.994,17.4Z" transform="translate(10662.826 5152.88) rotate(-45)" fill="#0083ca"/>
    <path id="Icon_awesome-toolbox" data-name="Icon awesome-toolbox" d="M70.665,27.926,64.3,21.564a4.5,4.5,0,0,0-3.182-1.317H53.987V9A6.748,6.748,0,0,0,47.239,2.25H24.744A6.748,6.748,0,0,0,18,9V20.246H10.861a4.5,4.5,0,0,0-3.182,1.317L1.317,27.926A4.5,4.5,0,0,0,0,31.108V42.74H18V40.491a2.249,2.249,0,0,1,2.249-2.249h4.5a2.249,2.249,0,0,1,2.249,2.249V42.74h18V40.491a2.249,2.249,0,0,1,2.249-2.249h4.5a2.249,2.249,0,0,1,2.249,2.249V42.74h18V31.106A4.5,4.5,0,0,0,70.665,27.926Zm-25.676-7.68h-18v-9h18Zm9,29.243a2.249,2.249,0,0,1-2.249,2.249h-4.5a2.249,2.249,0,0,1-2.249-2.249V47.239h-18v2.249a2.249,2.249,0,0,1-2.249,2.249h-4.5A2.249,2.249,0,0,1,18,49.489V47.239H0v13.5a4.5,4.5,0,0,0,4.5,4.5H67.484a4.5,4.5,0,0,0,4.5-4.5v-13.5h-18Z" transform="translate(10670.597 5146.565)" fill="#0083ca" stroke="#fff" stroke-width="1"/>
  </g>
</svg>
