<svg xmlns="http://www.w3.org/2000/svg" width="100" height="101" viewBox="0 0 100 101">
  <g id="wowLogo" transform="translate(-10224.705 -5192.104)">
    <path id="Icon_awesome-hard-hat" data-name="Icon awesome-hard-hat" d="M31.04,18.985A12.416,12.416,0,0,0,23.332,7.5l-2.639,5.278V5.535A1.035,1.035,0,0,0,19.658,4.5H13.45a1.035,1.035,0,0,0-1.035,1.035v7.243L9.777,7.5A12.416,12.416,0,0,0,2.069,18.985v4.139H31.04Zm1.035,7.167H1.035A1.035,1.035,0,0,0,0,27.187v2.069a1.035,1.035,0,0,0,1.035,1.035h31.04a1.035,1.035,0,0,0,1.035-1.035V27.187A1.035,1.035,0,0,0,32.074,26.152Z" transform="translate(10244.76 5188.604)" fill="none" stroke="#000" stroke-width="2"/>
    <path id="Icon_awesome-truck-moving" data-name="Icon awesome-truck-moving" d="M97.078,35.212,87.938,25.82a9.869,9.869,0,0,0-7.078-3H75V7.388A5.065,5.065,0,0,0,70,2.25H5A5.065,5.065,0,0,0,0,7.388V61.335A12.672,12.672,0,0,0,12.5,74.18a12.374,12.374,0,0,0,10-5.2,12.331,12.331,0,0,0,10,5.2A12.672,12.672,0,0,0,45,61.335a13.892,13.892,0,0,0-.25-2.569h25.5A12.543,12.543,0,1,0,95,61.335a13.892,13.892,0,0,0-.25-2.569H97.5A2.543,2.543,0,0,0,100,56.2V42.47A10.387,10.387,0,0,0,97.078,35.212ZM12.5,66.473a5.14,5.14,0,0,1,0-10.276,5.14,5.14,0,0,1,0,10.276Zm20,0a5.14,5.14,0,1,1,5-5.138A5.085,5.085,0,0,1,32.5,66.473ZM75,30.508h5.859a2.449,2.449,0,0,1,1.766.755l6.766,6.952H75Zm7.5,35.965a5.14,5.14,0,1,1,5-5.138A5.085,5.085,0,0,1,82.5,66.473Z" transform="translate(10224.705 5218.925)"/>
    <path id="Icon_awesome-tshirt" data-name="Icon awesome-tshirt" d="M50.181,7.672,34.7,0c-1.6,2.21-5.136,3.752-9.262,3.752S17.777,2.21,16.179,0L.7,7.672A1.281,1.281,0,0,0,.128,9.381l4.547,9.1a1.281,1.281,0,0,0,1.709.572l4.5-2.2A1.27,1.27,0,0,1,12.713,18V38.16A2.541,2.541,0,0,0,15.257,40.7H35.609a2.541,2.541,0,0,0,2.544-2.544V17.991a1.273,1.273,0,0,1,1.829-1.145l4.5,2.2a1.268,1.268,0,0,0,1.709-.572l4.555-9.095a1.269,1.269,0,0,0-.564-1.709Z" transform="translate(10235.875 5226.924)" stroke="#fff" stroke-width="2"/>
  </g>
</svg>
